# xmcd
#
# Track frame offsets:
#       150
#       16897
#       32552
#       45305
#       59222
#       73850
#       86905
#       99077
#       110960
#       126432
#       139312
#       151777
#       173167
#       188702
#
# Disc length: 2780 seconds
#
# Revision: 2
# Processed by: cddbd v1.4PL0 Copyright (c) Steve Scherf et al.
# Submitted via: CD-DA_X-Tractor v0.21
#
DISCID=c30ada0e
DTITLE=Fenton Robinson - Mellow Fellow
DYEAR=1900
DGENRE=
TTITLE0=Somebody Loan Me A Dime
TTITLE1=The Sky Is Crying
TTITLE2=Smmokestack Lightning
TTITLE3=Little Red Rooster
TTITLE4=Moanin' For My Baby
TTITLE5=Don't Start Me To Talkin'
TTITLE6=Stormy Monday
TTITLE7=Leave You In The Arms (Of Your Other Man)
TTITLE8=Let Me Come On Home
TTITLE9=The Getaway
TTITLE10=Sideman
TTITLE11=Give You Some Air
TTITLE12=I'm Not Through Loving You
TTITLE13=Mellow Fellow
EXTD=
EXTT0=
EXTT1=
EXTT2=
EXTT3=
EXTT4=
EXTT5=
EXTT6=
EXTT7=
EXTT8=
EXTT9=
EXTT10=
EXTT11=
EXTT12=
EXTT13=
PLAYORDER=
